<?xml version="1.0" encoding="UTF-8" standalone="no"?>
<svg xmlns="http://www.w3.org/2000/svg" xmlns:xlink="http://www.w3.org/1999/xlink" xmlns:serif="http://www.serif.com/" width="100%" height="100%" viewBox="0 0 165 165" version="1.1" xml:space="preserve" style="fill-rule:evenodd;clip-rule:evenodd;stroke-linejoin:round;stroke-miterlimit:2;">
    <g transform="matrix(1,0,0,1,-31.5,-22.7)">
        <circle cx="113.8" cy="113" r="73.8" style="fill:white;"></circle>
    </g>
    <g transform="matrix(1,0,0,1,-31.5,-22.7)">
        <path d="M115.7,71.5L106.6,64.9L117.2,42.1L97.6,40.4L96.5,36.8L106,22.7L92.1,24.8L77.3,44L83.5,74.3L93,71.8L90.3,86.4L107.3,86.6L113.2,113.2L97.7,120.3L103.2,122.4L88.8,136.5L97.9,142.8L118.6,141.7L113.9,153.2L97.6,153.2L88.8,167.9L104.1,164.9L128,153.8L152.8,146.8L150.6,143.1L159.6,134L159.6,122.8L144,120.5L141.6,108.8L130.3,92.3L123.5,77.2L115.7,71.5Z" style="fill:rgb(251,219,227);fill-rule:nonzero;"></path>
        <path d="M72,83.7L78,83.7L85.6,95.3L80.5,100.8L73.9,100.8L70.2,96L64.7,100.8L60.5,95.2L72,83.7Z" style="fill:rgb(251,219,227);fill-rule:nonzero;"></path>
    </g>
    <g transform="matrix(1,0,0,1,-31.5,-22.7)">
        <path d="M91.1,173.8L101.7,156.1L117.9,156.1L121.6,147.2L102.4,148.2L91.7,140.9L105.8,127.1L99.4,124.7L116.6,116.8L111.1,92L93.6,91.8L96.2,77.6L87.4,80L80.8,47.9L96.3,27.8L113.5,25.3L102.7,41.2L103.4,43.4L124,45.1L113,68.7L129.2,80.6L136.1,95.9L147.5,112.6L149.8,123.6L165.6,125.9L165.6,138.7L156.8,147.5L159.4,151.9L133.1,159.3L108.9,170.4L91.1,173.8ZM103.1,158.6L96.1,170.3L108.5,167.8L132.5,156.8L155.7,150.3L153.8,147.1L163.2,137.7L163.2,128L147.8,125.8L145.3,113.5L134,97L127.3,82.2L109.9,69.5L120.2,47.3L101.4,45.7L99.9,40.7L108.2,28.5L97.6,30.1L83.4,48.5L89.3,76.9L99.4,74.2L96.6,89.3L113.1,89.4L119.4,118L105.7,124.3L110.2,126L95.5,140.4L103,145.5L125.3,144.4L119.5,158.5L103.1,158.5L103.1,158.6Z" style="fill:rgb(16,54,69);fill-rule:nonzero;"></path>
    </g>
    <g transform="matrix(1,0,0,1,-31.5,-22.7)">
        <path d="M69.4,106.8L63.7,99.3L76.3,86.6L83.5,86.6L92,99.6L85.8,106.2L78.1,106.2L74.8,101.9L69.4,106.8ZM79.4,103.7L84.8,103.7L88.9,99.3L82.2,89.1L77.3,89.1L67,99.5L69.8,103.1L75.2,98.3L79.4,103.7Z" style="fill:rgb(16,54,69);fill-rule:nonzero;"></path>
    </g>
</svg>
