<?xml version="1.0" encoding="UTF-8" standalone="no"?>
<svg xmlns="http://www.w3.org/2000/svg" xmlns:xlink="http://www.w3.org/1999/xlink" xmlns:serif="http://www.serif.com/" width="100%" height="100%" viewBox="0 0 148 148" version="1.1" xml:space="preserve" style="fill-rule:evenodd;clip-rule:evenodd;stroke-linejoin:round;stroke-miterlimit:2;">
    <g transform="matrix(1,0,0,1,-40,-39.2)">
        <circle cx="113.8" cy="113" r="73.8" style="fill:white;"></circle>
    </g>
    <g transform="matrix(1,0,0,1,-40,-39.2)">
        <path d="M134.3,95.1C130.1,95.1 126,95.9 122.3,97.3C122.9,94.8 123.2,92.2 123.2,89.6C123.2,70.9 108.1,55.8 89.4,55.8C70.7,55.8 55.5,70.9 55.5,89.6C55.5,108.3 70.6,123.4 89.3,123.4C93.5,123.4 97.6,122.6 101.3,121.2C100.7,123.7 100.4,126.3 100.4,128.9C100.4,147.6 115.5,162.7 134.2,162.7C152.9,162.7 168,147.6 168,128.9C168.1,110.3 153,95.1 134.3,95.1Z" style="fill:rgb(150,205,225);fill-rule:nonzero;"></path>
    </g>
    <g transform="matrix(1,0,0,1,-40,-39.2)">
        <path d="M86.3,91.6L91.4,91.6C92.4,91.6 93.1,91.9 93.3,92.4C93.5,92.8 93.6,93.3 93.6,94L93.6,100.3C93.6,100.9 93.3,101.5 92.8,102.1C91.2,103.8 88.8,104.6 85.5,104.6C82.6,104.6 80.2,103.5 78,101.4C75.9,99.2 74.8,96.6 74.8,93.6C74.8,90.5 75.9,88 78,86C80.1,84 82.7,82.9 85.6,82.9C87.9,82.9 90,83.6 92,85.1C92.5,85.5 92.8,85.9 92.8,86.4C92.8,86.9 92.6,87.4 92.1,88C91.4,89 90.7,89.5 90.1,89.5C89.7,89.5 89.2,89.2 88.3,88.7C87.5,88.2 86.5,87.9 85.4,87.9C83.9,87.9 82.6,88.4 81.5,89.4C80.4,90.4 79.8,91.8 79.8,93.4C79.8,95 80.4,96.5 81.5,97.6C82.7,98.8 84,99.3 85.4,99.3C86.5,99.3 87.4,99.1 88.2,98.8L88.2,95.7L85.9,95.7C85.3,95.7 84.9,95.6 84.6,95.5C84.4,95.3 84.2,95.1 84.1,94.8C84,94.5 84,94.1 84,93.6C84,93.1 84,92.7 84.1,92.4C84.2,92.1 84.3,91.9 84.6,91.8C85.3,91.7 85.8,91.6 86.3,91.6Z" style="fill:rgb(18,55,69);fill-rule:nonzero;"></path>
        <path d="M98.5,83.2L110.9,83.2C111.1,83.2 111.4,83.3 111.6,83.5C111.9,83.7 112.1,83.9 112.2,84.3C112.3,84.7 112.4,85.2 112.4,85.8C112.4,86.4 112.3,86.9 112.2,87.3C112.1,87.7 111.9,87.9 111.6,88.1C111.3,88.2 111.1,88.3 110.8,88.4L101,88.4L101,91.3L107.7,91.3C107.9,91.3 108.2,91.4 108.5,91.6C109,91.9 109.2,92.6 109.2,93.9C109.2,95.2 108.8,96 108.1,96.3C107.8,96.4 107.3,96.4 106.6,96.4L101,96.4L101,102.8C101,103 100.9,103.3 100.7,103.5C100.4,104 99.7,104.3 98.5,104.3C97.2,104.3 96.4,103.9 96.1,103.2C96,102.9 95.9,102.4 95.9,101.7L95.9,85.7C95.9,84.7 96.1,84.1 96.4,83.7C96.8,83.3 97.5,83.2 98.5,83.2Z" style="fill:rgb(18,55,69);fill-rule:nonzero;"></path>
    </g>
    <g transform="matrix(1,0,0,1,-40,-39.2)">
        <path d="M147.6,124.3C148.7,124.9 149.3,125.5 149.3,126.1C149.3,126.4 149.2,126.9 148.9,127.5L141,143.6C140.8,144 140.5,144.4 140,144.6C139.6,144.9 139.1,145 138.7,145L138.4,145C137.9,145 137.5,144.9 137,144.6C136.6,144.3 136.2,144 136,143.6L128.1,127.5C127.8,126.9 127.7,126.4 127.7,126.1C127.7,125.4 128.3,124.8 129.4,124.3C130,124 130.5,123.8 130.9,123.8C131.2,123.8 131.5,123.8 131.7,123.9C131.9,124 132,124.1 132.2,124.3C132.4,124.5 132.5,124.8 132.7,125.1C132.8,125.4 133.2,126.2 133.8,127.5C134.4,128.8 135,130.2 135.7,131.7C136.4,133.2 137,134.6 137.6,135.9C138.2,137.2 138.5,137.9 138.6,138.1L144.4,125.5C144.6,125.1 144.7,124.8 144.8,124.6C145.1,124.1 145.6,123.8 146.1,123.8C146.6,123.8 147,124 147.6,124.3Z" style="fill:rgb(18,55,69);fill-rule:nonzero;"></path>
    </g>
    <g transform="matrix(1,0,0,1,-40,-39.2)">
        <path d="M138.5,98.1C134.9,98.1 131.4,98.6 128.1,99.7C128.4,97.8 128.6,95.8 128.6,93.8C128.6,74.5 112.9,58.7 93.5,58.7C74.1,58.7 58.5,74.4 58.5,93.8C58.5,113.2 74.2,128.9 93.6,128.9C97.1,128.9 100.6,128.4 104,127.3C103.7,129.2 103.5,131.2 103.5,133.2C103.5,152.5 119.2,168.3 138.6,168.3C158,168.3 173.7,152.6 173.7,133.2C173.6,113.8 157.8,98.1 138.5,98.1ZM93.6,126.4C75.6,126.4 61,111.8 61,93.8C61,75.8 75.6,61.2 93.6,61.2C111.6,61.2 126.2,75.8 126.2,93.8C126.2,96.1 126,98.4 125.5,100.6C125.4,100.6 125.3,100.7 125.2,100.7C124.8,100.8 124.5,101 124.1,101.2C123.8,101.3 123.6,101.4 123.3,101.5C123.2,101.6 123,101.6 122.9,101.7C116,105.1 110.4,110.8 107,117.6C106.9,117.8 106.8,117.9 106.8,118.1C106.6,118.4 106.5,118.8 106.3,119.1C106.2,119.4 106,119.7 105.9,120C105.8,120.3 105.7,120.5 105.6,120.8C105.4,121.3 105.2,121.8 105.1,122.3C105.1,122.4 105,122.5 105,122.6C104.8,123.2 104.6,123.9 104.4,124.6C101,125.7 97.3,126.4 93.6,126.4ZM138.5,165.7C120.5,165.7 105.9,151.1 105.9,133.1C105.9,130.5 106.2,128 106.8,125.6C106.9,125 107.1,124.4 107.3,123.8L107.3,123.7C107.5,123.1 107.7,122.5 107.9,121.9C107.9,121.8 108,121.7 108,121.5C108.2,121.1 108.3,120.7 108.5,120.3C108.6,120 108.8,119.7 108.9,119.4C109,119.2 109.1,119 109.2,118.8C109.4,118.4 109.6,118.1 109.8,117.7C109.8,117.6 109.9,117.6 109.9,117.5C112.9,112 117.4,107.5 122.9,104.5L123,104.5C123.3,104.3 123.6,104.2 123.9,104C124.2,103.9 124.4,103.7 124.7,103.6C125,103.5 125.2,103.4 125.5,103.3C125.9,103.1 126.2,103 126.6,102.8C130.3,101.3 134.3,100.5 138.6,100.5C156.6,100.5 171.2,115.1 171.2,133.1C171.2,151.1 156.5,165.7 138.5,165.7Z" style="fill:rgb(16,54,69);fill-rule:nonzero;"></path>
    </g>
</svg>
