<?xml version="1.0" encoding="UTF-8" standalone="no"?>
<svg xmlns="http://www.w3.org/2000/svg" xmlns:xlink="http://www.w3.org/1999/xlink" xmlns:serif="http://www.serif.com/" width="100%" height="100%" viewBox="0 0 165 165" version="1.1" xml:space="preserve" style="fill-rule:evenodd;clip-rule:evenodd;stroke-linejoin:round;stroke-miterlimit:2;">
    <g transform="matrix(1,0,0,1,-31.5,-30.7)">
        <circle cx="113.8" cy="113" r="73.8" style="fill:white;"></circle>
    </g>
    <g transform="matrix(1,0,0,1,-31.5,-30.7)">
        <path d="M134.4,66.8C134.2,63.8 131.5,62.8 128.2,61L115.4,55.4C115.4,57.6 114.7,59.5 111.1,62.1C110.2,62.8 109.4,63.6 108.7,64.6C105.8,64.4 102.9,64.3 99.9,64.3L62,104.4L62,149L164.6,126.7L164.6,82.1C154.7,76 145.8,72.1 134.8,69.2" style="fill:rgb(45,165,146);fill-rule:nonzero;"></path>
    </g>
    <g transform="matrix(1,0,0,1,-31.5,-30.7)">
        <path d="M165.3,100.1L59.8,123L60.8,131.7L165.3,109L165.3,100.1Z" style="fill:white;fill-rule:nonzero;"></path>
    </g>
    <g transform="matrix(1,0,0,1,-31.5,-30.7)">
        <path d="M64.7,154.7L64.7,108.1L103.3,67.2L103.8,67.2C106.5,67.2 109.3,67.3 111.9,67.4C112.6,66.6 113.3,65.8 114.2,65.2C117.7,62.6 118,61.1 118,59.5L118,57.6L132.6,64C135.8,65.7 137.8,68.5 138.4,71.7C149.1,74.7 159.5,79.2 169.2,85.2L169.8,85.6L169.8,131.9L64.7,154.7ZM67.2,136.4L67.2,151.7L167.3,129.9L167.3,114.6L67.2,136.4ZM67.2,127.4L67.2,133.8L167.2,112L167.2,105.6L67.2,127.4ZM67.2,109.6L67.2,124.9L167.3,103.1L167.3,87.8L67.2,109.6ZM104.3,69.7L69.5,106.5L165,85.7C156.5,80.8 147.6,77 138.4,74.3C138.3,74.9 138.2,75.5 138.1,76.2C137,80.7 132.8,85.3 126,85.3L121.5,85.3C115.5,85.3 111.2,82.7 109.7,78.2C108.8,75.5 109.1,72.5 110.3,69.8C108.5,69.8 106.4,69.7 104.3,69.7ZM120.3,61.4C119.9,63.2 118.7,65.1 115.6,67.3C112.5,69.6 111,74 112.1,77.5C113.2,81 116.6,82.9 121.5,82.9L124.4,82.9L123.8,82.5C120.1,79.8 117.9,75.4 117.9,70.8L120.4,70.8C120.4,74.6 122.2,78.2 125.3,80.5L128.2,82.7C132.2,81.8 134.7,78.8 135.5,75.8C136.3,72.8 135.5,68.7 131.3,66.4L120.3,61.4Z" style="fill:rgb(16,54,69);fill-rule:nonzero;"></path>
    </g>
</svg>
