<?xml version="1.0" encoding="UTF-8" standalone="no"?>
<svg xmlns="http://www.w3.org/2000/svg" xmlns:xlink="http://www.w3.org/1999/xlink" xmlns:serif="http://www.serif.com/" width="100%" height="100%" viewBox="0 0 165 165" version="1.1" xml:space="preserve" style="fill-rule:evenodd;clip-rule:evenodd;stroke-linejoin:round;stroke-miterlimit:2;">
    <g transform="matrix(1,0,0,1,-31.3,-27.5)">
        <circle cx="113.8" cy="113" r="73.8" style="fill:white;"></circle>
    </g>
    <g transform="matrix(1,0,0,1,-31.3,-27.5)">
        <path d="M86.6,44.9C88.7,44.9 90.5,43.2 90.5,41C90.5,38.9 86.6,33.2 86.6,33.2C86.6,33.2 82.7,38.9 82.7,41C82.7,43.2 84.4,44.9 86.6,44.9Z" style="fill:rgb(253,197,67);fill-rule:nonzero;"></path>
        <path d="M103.6,44.9C105.7,44.9 107.5,43.2 107.5,41C107.5,38.9 103.6,33.2 103.6,33.2C103.6,33.2 99.7,38.9 99.7,41C99.8,43.2 101.5,44.9 103.6,44.9Z" style="fill:rgb(253,197,67);fill-rule:nonzero;"></path>
        <path d="M119.6,44.9C121.7,44.9 123.5,43.2 123.5,41C123.5,38.9 119.6,33.2 119.6,33.2C119.6,33.2 115.7,38.9 115.7,41C115.8,43.2 117.5,44.9 119.6,44.9Z" style="fill:rgb(253,197,67);fill-rule:nonzero;"></path>
        <path d="M136.5,44.9C138.6,44.9 140.4,43.2 140.4,41C140.4,38.9 136.5,33.2 136.5,33.2C136.5,33.2 132.6,38.9 132.6,41C132.7,43.2 134.4,44.9 136.5,44.9Z" style="fill:rgb(253,197,67);fill-rule:nonzero;"></path>
        <path d="M160.3,83C160.3,82.8 160.3,82.5 160.2,82.3C160.2,82.2 160.2,82.1 160.1,82.1C160.1,81.9 160,81.8 159.9,81.6C159.9,81.5 159.8,81.4 159.8,81.3C159.7,81.1 159.6,81 159.5,80.8C159.4,80.7 159.4,80.6 159.3,80.6C159.1,80.4 159,80.2 158.8,80C158.8,80 158.8,79.9 158.7,79.9C158.5,79.7 158.2,79.4 157.9,79.2C157.8,79.1 157.7,79.1 157.6,79C157.4,78.8 157.2,78.7 157,78.5C156.9,78.4 156.8,78.3 156.7,78.3C156.5,78.2 156.2,78 156,77.9C155.9,77.8 155.8,77.8 155.6,77.7C155.3,77.5 155,77.4 154.6,77.2C154.5,77.2 154.5,77.1 154.4,77.1C154,76.9 153.5,76.7 153.1,76.5C153,76.4 152.8,76.4 152.7,76.3C152.4,76.2 152,76 151.6,75.9C151.4,75.8 151.2,75.8 151.1,75.7C150.7,75.6 150.4,75.4 150,75.3C149.8,75.2 149.6,75.2 149.4,75.1C149,75 148.5,74.8 148.1,74.7C148,74.7 147.8,74.6 147.7,74.6C147.1,74.4 146.5,74.3 145.9,74.1C145.7,74.1 145.6,74 145.4,74C144.9,73.9 144.4,73.8 143.9,73.6C143.7,73.5 143.4,73.5 143.2,73.4C142.7,73.3 142.3,73.2 141.8,73.1C141.6,73.1 141.3,73 141.1,73C140.6,72.9 140,72.8 139.5,72.7C139.4,72.7 139.2,72.6 139.1,72.6L139.1,49.8L133.7,49.8L133.7,71.7L133.3,71.7C132.7,71.6 132.1,71.6 131.5,71.5C131.3,71.5 131,71.4 130.8,71.4C130,71.3 129.1,71.2 128.3,71.1L127.9,71.1C127.2,71 126.5,71 125.7,70.9C125.4,70.9 125.1,70.9 124.8,70.8C124.2,70.8 123.6,70.7 123,70.7L122.5,70.7L122.6,70.7L122.2,70.7L122.2,49.8L116.8,49.8L116.8,70.4C115.1,70.4 113.5,70.3 111.8,70.3C110.1,70.3 108.4,70.3 106.7,70.4L106.2,70.4L106.2,49.8L100.8,49.8L100.8,70.7L100.7,70.7L100.8,70.7L100.4,70.7C99.7,70.7 99,70.8 98.3,70.8C98.1,70.8 97.8,70.8 97.6,70.9C96.7,71 95.8,71 94.9,71.1C94.7,71.1 94.5,71.1 94.4,71.2C93.7,71.3 93,71.3 92.3,71.4C92,71.4 91.8,71.5 91.5,71.5C90.9,71.6 90.3,71.7 89.6,71.7C89.4,71.7 89.3,71.7 89.1,71.8L89.1,49.8L83.7,49.8L83.7,72.7C83.6,72.7 83.4,72.8 83.3,72.8C82.8,72.9 82.4,73 81.9,73.1C81.7,73.1 81.4,73.2 81.2,73.2C80.7,73.3 80.1,73.4 79.6,73.6C79.5,73.6 79.3,73.7 79.2,73.7C78.6,73.9 77.9,74 77.3,74.2C77.1,74.2 77,74.3 76.8,74.3C76.4,74.4 75.9,74.5 75.5,74.7C75.3,74.8 75.1,74.8 74.9,74.9C74.5,75 74.2,75.1 73.8,75.2C73.6,75.3 73.4,75.3 73.2,75.4C72.8,75.5 72.5,75.7 72.1,75.8C71.9,75.9 71.8,75.9 71.6,76C71.1,76.2 70.6,76.4 70.2,76.6L70.1,76.6C69.7,76.8 69.3,77 68.9,77.2C68.8,77.3 68.6,77.3 68.5,77.4C68.2,77.5 68,77.7 67.7,77.8C67.6,77.9 67.4,78 67.3,78C67.1,78.1 66.8,78.3 66.6,78.4C66.5,78.5 66.4,78.5 66.3,78.6C66.1,78.8 65.8,78.9 65.6,79.1C65.5,79.2 65.5,79.2 65.4,79.3C65.1,79.5 64.9,79.7 64.7,80C64.6,80.1 64.6,80.1 64.5,80.2C64.3,80.4 64.2,80.5 64.1,80.7C64,80.8 64,80.9 63.9,80.9C63.8,81.1 63.7,81.2 63.6,81.4C63.6,81.5 63.5,81.6 63.5,81.7C63.4,81.9 63.4,82 63.3,82.2C63.3,82.3 63.2,82.4 63.2,82.4C63.1,82.6 63.1,82.9 63.1,83.1L63.1,148.4C63.1,155.4 84.8,161 111.6,161C138.4,161 160.1,155.3 160.1,148.4L160.1,83L160.3,83ZM133.8,71.7L133.8,71.7ZM89.4,71.8C89.3,71.8 89.3,71.8 89.4,71.8Z" style="fill:rgb(253,197,67);fill-rule:nonzero;"></path>
    </g>
    <g transform="matrix(1,0,0,1,-31.3,-27.5)">
        <path d="M90.5,50.1C93.3,50.1 95.6,47.8 95.6,45C95.6,42.6 92.2,37.5 91.5,36.5L90.5,35L89.5,36.5C88.8,37.5 85.4,42.6 85.4,45C85.4,47.8 87.7,50.1 90.5,50.1ZM90.5,39.5C91.9,41.7 93.1,44.1 93.1,45C93.1,46.4 91.9,47.6 90.5,47.6C89.1,47.6 87.9,46.4 87.9,45C87.9,44.1 89.1,41.7 90.5,39.5Z" style="fill:rgb(16,54,69);fill-rule:nonzero;"></path>
        <path d="M107.6,50.1C110.4,50.1 112.7,47.8 112.7,45C112.7,42.6 109.3,37.5 108.6,36.5L107.6,35L106.6,36.5C105.9,37.5 102.5,42.6 102.5,45C102.5,47.8 104.8,50.1 107.6,50.1ZM107.6,39.5C109,41.7 110.2,44.1 110.2,45C110.2,46.4 109,47.6 107.6,47.6C106.2,47.6 105,46.4 105,45C105,44.1 106.2,41.7 107.6,39.5Z" style="fill:rgb(16,54,69);fill-rule:nonzero;"></path>
        <path d="M123.6,50.1C126.4,50.1 128.7,47.8 128.7,45C128.7,42.6 125.3,37.5 124.6,36.5L123.6,35L122.6,36.5C121.9,37.5 118.5,42.6 118.5,45C118.5,47.8 120.7,50.1 123.6,50.1ZM123.6,39.5C125,41.7 126.2,44.1 126.2,45C126.2,46.4 125,47.6 123.6,47.6C122.2,47.6 121,46.4 121,45C121,44.1 122.2,41.7 123.6,39.5Z" style="fill:rgb(16,54,69);fill-rule:nonzero;"></path>
        <path d="M140.5,50.1C143.3,50.1 145.6,47.8 145.6,45C145.6,42.6 142.2,37.5 141.5,36.5L140.5,35L139.5,36.5C138.8,37.5 135.4,42.6 135.4,45C135.4,47.8 137.7,50.1 140.5,50.1ZM140.5,39.5C141.9,41.7 143.1,44.1 143.1,45C143.1,46.4 141.9,47.6 140.5,47.6C139.1,47.6 137.9,46.4 137.9,45C137.9,44.1 139.1,41.7 140.5,39.5Z" style="fill:rgb(16,54,69);fill-rule:nonzero;"></path>
        <path d="M165.5,87C165.5,80.6 152.7,77.1 144.4,75.5L144.4,52.5L136.5,52.5L136.5,74.2C133.6,73.8 130.6,73.6 127.5,73.4L127.5,52.5L119.6,52.5L119.6,73.1C116.9,73 114.2,73 111.5,73.1L111.5,52.5L103.6,52.5L103.6,73.4C100.5,73.6 97.4,73.9 94.5,74.3L94.5,52.5L86.6,52.5L86.6,75.6C78.5,77.2 66.2,80.6 66.2,87L66.2,152.3C66.2,161.3 91.8,166.2 115.9,166.2C140,166.2 165.6,161.3 165.6,152.3L165.6,87L165.5,87ZM139,55L141.9,55L141.9,87L139,87L139,55ZM122.1,55L125,55L125,87L122.1,87L122.1,55ZM106.1,55L109,55L109,87L106.1,87L106.1,55ZM89,55L92,55L92,87L89,87L89,55ZM86.5,78.2L86.5,89.6L94.4,89.6L94.4,76.9C97.3,76.5 100.4,76.2 103.5,76L103.5,89.5L111.4,89.5L111.4,75.6C114.1,75.5 116.8,75.5 119.5,75.6L119.5,89.5L127.4,89.5L127.4,75.9C130.5,76.1 133.5,76.4 136.4,76.7L136.4,89.4L144.3,89.4L144.3,78C158,80.6 162.9,84.4 162.9,86.9C162.9,92.3 143.5,98.3 115.7,98.3C87.9,98.3 68.5,92.3 68.5,86.9C68.6,84.5 73.4,80.8 86.5,78.2ZM115.8,163.7C88,163.7 68.6,157.7 68.6,152.3L68.6,127.4C69.5,128 70.5,128.3 71.6,128.3C74.6,128.3 77.1,125.8 77.1,122.8L77.1,113.3C77.1,111.1 78.9,109.3 81.1,109.3C83.3,109.3 85.1,111.1 85.1,113.3L85.1,137.5C85.1,140.5 87.6,143 90.6,143C93.6,143 96.1,140.5 96.1,137.5L96.1,118.5C96.1,116.9 97.4,115.5 99.1,115.5C100.8,115.5 102.1,116.8 102.1,118.5L102.1,129C102.1,132 104.6,134.5 107.6,134.5C110.6,134.5 113.1,132 113.1,129L113.1,125.2C114,125.8 115,126.1 116.1,126.1C119.1,126.1 121.6,123.6 121.6,120.6L121.6,114.3C121.6,112.7 122.9,111.3 124.6,111.3C126.2,111.3 127.6,112.6 127.6,114.3L127.6,129.1C127.6,132.1 130.1,134.6 133.1,134.6C136.1,134.6 138.6,132.1 138.6,129.1L138.6,111.2C138.6,109 140.4,107.2 142.6,107.2C144.8,107.2 146.6,109 146.6,111.2L146.6,116.5C146.6,119.5 149.1,122 152.1,122C153.2,122 154.2,121.7 155.1,121.1L155.1,124.9C155.1,127.9 157.6,130.4 160.6,130.4C161.7,130.4 162.7,130.1 163.6,129.5L163.6,152.3C163,157.7 143.6,163.7 115.8,163.7ZM160.1,127.9C158.5,127.9 157.1,126.6 157.1,124.9L157.1,116.5L154.6,116.5C154.6,118.1 153.3,119.5 151.6,119.5C150,119.5 148.6,118.2 148.6,116.5L148.6,111.2C148.6,107.6 145.7,104.7 142.1,104.7C138.5,104.7 135.6,107.6 135.6,111.2L135.6,129.1C135.6,130.7 134.3,132.1 132.6,132.1C130.9,132.1 129.6,130.8 129.6,129.1L129.6,114.3C129.6,111.3 127.1,108.8 124.1,108.8C121.1,108.8 118.6,111.3 118.6,114.3L118.6,120.6C118.6,122.2 117.3,123.6 115.6,123.6C114,123.6 112.6,122.3 112.6,120.6L110.1,120.6L110.1,129C110.1,130.6 108.8,132 107.1,132C105.5,132 104.1,130.7 104.1,129L104.1,118.5C104.1,115.5 101.6,113 98.6,113C95.6,113 93.1,115.5 93.1,118.5L93.1,137.5C93.1,139.1 91.8,140.5 90.1,140.5C88.5,140.5 87.1,139.2 87.1,137.5L87.1,113.3C87.1,109.7 84.2,106.8 80.6,106.8C77,106.8 74.1,109.7 74.1,113.3L74.1,122.8C74.1,124.4 72.8,125.8 71.1,125.8C69.5,125.8 68.1,124.5 68.1,122.8L68.1,91.6C75.1,97.7 95.7,100.9 115.3,100.9C134.9,100.9 155.5,97.7 162.5,91.6L162.5,124.9C163,126.5 161.7,127.9 160.1,127.9Z" style="fill:rgb(16,54,69);fill-rule:nonzero;"></path>
    </g>
</svg>
